<mxfile host="app.diagrams.net" agent="Mozilla/5.0 (Windows NT 10.0; Win64; x64) AppleWebKit/537.36 (KHTML, like Gecko) Chrome/131.0.0.0 Safari/537.36 Edg/131.0.0.0" version="24.8.6">
  <diagram name="Page-1" id="SkYzbW2E95Xh9nqPgexP">
    <mxGraphModel dx="2377" dy="3518" grid="1" gridSize="10" guides="1" tooltips="1" connect="1" arrows="1" fold="1" page="1" pageScale="1" pageWidth="850" pageHeight="1100" math="0" shadow="0">
      <root>
        <mxCell id="0" />
        <mxCell id="1" parent="0" />
        <mxCell id="K7m00YYIix95iYP7Vpyf-31" value="" style="rounded=1;whiteSpace=wrap;html=1;" parent="1" vertex="1">
          <mxGeometry x="10" y="-1270" width="1310" height="1100" as="geometry" />
        </mxCell>
        <mxCell id="K7m00YYIix95iYP7Vpyf-72" style="edgeStyle=orthogonalEdgeStyle;rounded=0;orthogonalLoop=1;jettySize=auto;html=1;" parent="1" source="K7m00YYIix95iYP7Vpyf-56" target="K7m00YYIix95iYP7Vpyf-41" edge="1">
          <mxGeometry relative="1" as="geometry" />
        </mxCell>
        <mxCell id="K7m00YYIix95iYP7Vpyf-56" value="" style="rounded=0;whiteSpace=wrap;html=1;" parent="1" vertex="1">
          <mxGeometry x="240" y="-810" width="180" height="250" as="geometry" />
        </mxCell>
        <mxCell id="K7m00YYIix95iYP7Vpyf-2" value="" style="rounded=1;whiteSpace=wrap;html=1;" parent="1" vertex="1">
          <mxGeometry x="180" y="-2120" width="540" height="190" as="geometry" />
        </mxCell>
        <mxCell id="K7m00YYIix95iYP7Vpyf-30" value="" style="rounded=0;whiteSpace=wrap;html=1;" parent="1" vertex="1">
          <mxGeometry x="310" y="-2080" width="400" height="140" as="geometry" />
        </mxCell>
        <mxCell id="K7m00YYIix95iYP7Vpyf-10" value="" style="rounded=1;whiteSpace=wrap;html=1;" parent="1" vertex="1">
          <mxGeometry x="10" y="-1730" width="830" height="430" as="geometry" />
        </mxCell>
        <mxCell id="K7m00YYIix95iYP7Vpyf-12" value="" style="rounded=0;whiteSpace=wrap;html=1;align=center;" parent="1" vertex="1">
          <mxGeometry x="225" y="-1680" width="305" height="360" as="geometry" />
        </mxCell>
        <mxCell id="K7m00YYIix95iYP7Vpyf-28" value="" style="rounded=0;whiteSpace=wrap;html=1;" parent="1" vertex="1">
          <mxGeometry x="240" y="-1620" width="280" height="290" as="geometry" />
        </mxCell>
        <mxCell id="K7m00YYIix95iYP7Vpyf-6" style="edgeStyle=orthogonalEdgeStyle;rounded=0;orthogonalLoop=1;jettySize=auto;html=1;" parent="1" source="K7m00YYIix95iYP7Vpyf-1" target="K7m00YYIix95iYP7Vpyf-5" edge="1">
          <mxGeometry relative="1" as="geometry" />
        </mxCell>
        <mxCell id="K7m00YYIix95iYP7Vpyf-1" value="Parceiro" style="shape=umlActor;verticalLabelPosition=bottom;verticalAlign=top;html=1;outlineConnect=0;" parent="1" vertex="1">
          <mxGeometry x="240" y="-2030" width="30" height="60" as="geometry" />
        </mxCell>
        <mxCell id="K7m00YYIix95iYP7Vpyf-8" style="edgeStyle=orthogonalEdgeStyle;rounded=0;orthogonalLoop=1;jettySize=auto;html=1;entryX=0;entryY=0.5;entryDx=0;entryDy=0;" parent="1" source="K7m00YYIix95iYP7Vpyf-5" target="K7m00YYIix95iYP7Vpyf-7" edge="1">
          <mxGeometry relative="1" as="geometry" />
        </mxCell>
        <mxCell id="K7m00YYIix95iYP7Vpyf-5" value="Api&lt;br&gt;Rest" style="rounded=0;whiteSpace=wrap;html=1;" parent="1" vertex="1">
          <mxGeometry x="340" y="-2030" width="120" height="60" as="geometry" />
        </mxCell>
        <mxCell id="K7m00YYIix95iYP7Vpyf-7" value="Dominio cliente, produto e pedido" style="rounded=0;whiteSpace=wrap;html=1;" parent="1" vertex="1">
          <mxGeometry x="525" y="-2030" width="120" height="60" as="geometry" />
        </mxCell>
        <mxCell id="K7m00YYIix95iYP7Vpyf-9" value="&lt;font style=&quot;font-size: 24px;&quot;&gt;C1 - Contexto&lt;/font&gt;" style="text;html=1;align=center;verticalAlign=middle;whiteSpace=wrap;rounded=0;" parent="1" vertex="1">
          <mxGeometry x="310" y="-2110" width="270" height="30" as="geometry" />
        </mxCell>
        <mxCell id="K7m00YYIix95iYP7Vpyf-23" style="edgeStyle=orthogonalEdgeStyle;rounded=0;orthogonalLoop=1;jettySize=auto;html=1;entryX=0;entryY=0.5;entryDx=0;entryDy=0;" parent="1" source="K7m00YYIix95iYP7Vpyf-11" target="K7m00YYIix95iYP7Vpyf-12" edge="1">
          <mxGeometry relative="1" as="geometry" />
        </mxCell>
        <mxCell id="K7m00YYIix95iYP7Vpyf-11" value="Api&lt;br&gt;Rest" style="rounded=0;whiteSpace=wrap;html=1;" parent="1" vertex="1">
          <mxGeometry x="20" y="-1530" width="120" height="60" as="geometry" />
        </mxCell>
        <mxCell id="K7m00YYIix95iYP7Vpyf-13" value="&lt;b&gt;&lt;font style=&quot;font-size: 24px;&quot;&gt;C2 - Sistema&lt;/font&gt;&lt;/b&gt;&lt;b style=&quot;background-color: initial;&quot;&gt;&lt;font style=&quot;font-size: 24px;&quot;&gt;&amp;nbsp;&lt;/font&gt;&lt;/b&gt;" style="text;html=1;align=center;verticalAlign=middle;whiteSpace=wrap;rounded=0;" parent="1" vertex="1">
          <mxGeometry x="110" y="-1720" width="640" height="30" as="geometry" />
        </mxCell>
        <mxCell id="K7m00YYIix95iYP7Vpyf-14" value="&lt;font style=&quot;font-size: 18px;&quot;&gt;Aplicação&lt;/font&gt;" style="text;html=1;align=center;verticalAlign=middle;whiteSpace=wrap;rounded=0;" parent="1" vertex="1">
          <mxGeometry x="320" y="-1660" width="105" height="30" as="geometry" />
        </mxCell>
        <mxCell id="K7m00YYIix95iYP7Vpyf-15" value="Cliente" style="rounded=0;whiteSpace=wrap;html=1;" parent="1" vertex="1">
          <mxGeometry x="270" y="-1570" width="220" height="60" as="geometry" />
        </mxCell>
        <mxCell id="K7m00YYIix95iYP7Vpyf-17" value="Produto" style="rounded=0;whiteSpace=wrap;html=1;" parent="1" vertex="1">
          <mxGeometry x="270" y="-1490" width="220" height="60" as="geometry" />
        </mxCell>
        <mxCell id="K7m00YYIix95iYP7Vpyf-19" value="Pedido" style="rounded=0;whiteSpace=wrap;html=1;" parent="1" vertex="1">
          <mxGeometry x="270" y="-1410" width="220" height="60" as="geometry" />
        </mxCell>
        <mxCell id="K7m00YYIix95iYP7Vpyf-24" value="" style="strokeWidth=2;html=1;shape=mxgraph.flowchart.database;whiteSpace=wrap;" parent="1" vertex="1">
          <mxGeometry x="660" y="-1615" width="170" height="230" as="geometry" />
        </mxCell>
        <mxCell id="K7m00YYIix95iYP7Vpyf-25" style="edgeStyle=orthogonalEdgeStyle;rounded=0;orthogonalLoop=1;jettySize=auto;html=1;entryX=0;entryY=0.5;entryDx=0;entryDy=0;entryPerimeter=0;" parent="1" source="K7m00YYIix95iYP7Vpyf-12" target="K7m00YYIix95iYP7Vpyf-24" edge="1">
          <mxGeometry relative="1" as="geometry" />
        </mxCell>
        <mxCell id="K7m00YYIix95iYP7Vpyf-29" value="&lt;font style=&quot;font-size: 18px;&quot;&gt;Domínio&lt;/font&gt;" style="text;html=1;align=center;verticalAlign=middle;whiteSpace=wrap;rounded=0;" parent="1" vertex="1">
          <mxGeometry x="340" y="-1615" width="60" height="30" as="geometry" />
        </mxCell>
        <mxCell id="K7m00YYIix95iYP7Vpyf-74" style="edgeStyle=orthogonalEdgeStyle;rounded=0;orthogonalLoop=1;jettySize=auto;html=1;" parent="1" source="K7m00YYIix95iYP7Vpyf-33" target="K7m00YYIix95iYP7Vpyf-69" edge="1">
          <mxGeometry relative="1" as="geometry" />
        </mxCell>
        <mxCell id="K7m00YYIix95iYP7Vpyf-33" value="" style="rounded=0;whiteSpace=wrap;html=1;" parent="1" vertex="1">
          <mxGeometry x="440" y="-1140" width="280" height="290" as="geometry" />
        </mxCell>
        <mxCell id="K7m00YYIix95iYP7Vpyf-34" style="edgeStyle=orthogonalEdgeStyle;rounded=0;orthogonalLoop=1;jettySize=auto;html=1;entryX=0;entryY=0.5;entryDx=0;entryDy=0;" parent="1" source="K7m00YYIix95iYP7Vpyf-35" target="K7m00YYIix95iYP7Vpyf-45" edge="1">
          <mxGeometry relative="1" as="geometry">
            <mxPoint x="225" y="-1009.9999999999998" as="targetPoint" />
          </mxGeometry>
        </mxCell>
        <mxCell id="K7m00YYIix95iYP7Vpyf-35" value="Api&lt;br&gt;Rest" style="rounded=0;whiteSpace=wrap;html=1;" parent="1" vertex="1">
          <mxGeometry x="20" y="-1025" width="120" height="60" as="geometry" />
        </mxCell>
        <mxCell id="K7m00YYIix95iYP7Vpyf-36" value="&lt;b&gt;&lt;font style=&quot;font-size: 24px;&quot;&gt;C3 - Aplicação&lt;/font&gt;&lt;/b&gt;&lt;b style=&quot;background-color: initial;&quot;&gt;&lt;font style=&quot;font-size: 24px;&quot;&gt;&amp;nbsp;&lt;/font&gt;&lt;/b&gt;" style="text;html=1;align=center;verticalAlign=middle;whiteSpace=wrap;rounded=0;" parent="1" vertex="1">
          <mxGeometry x="110" y="-1250" width="640" height="30" as="geometry" />
        </mxCell>
        <mxCell id="K7m00YYIix95iYP7Vpyf-38" value="Cliente" style="rounded=0;whiteSpace=wrap;html=1;" parent="1" vertex="1">
          <mxGeometry x="470" y="-1090" width="220" height="60" as="geometry" />
        </mxCell>
        <mxCell id="K7m00YYIix95iYP7Vpyf-39" value="Produto" style="rounded=0;whiteSpace=wrap;html=1;" parent="1" vertex="1">
          <mxGeometry x="470" y="-1010" width="220" height="60" as="geometry" />
        </mxCell>
        <mxCell id="K7m00YYIix95iYP7Vpyf-40" value="Pedido" style="rounded=0;whiteSpace=wrap;html=1;" parent="1" vertex="1">
          <mxGeometry x="470" y="-920" width="220" height="60" as="geometry" />
        </mxCell>
        <mxCell id="K7m00YYIix95iYP7Vpyf-41" value="" style="strokeWidth=2;html=1;shape=mxgraph.flowchart.database;whiteSpace=wrap;" parent="1" vertex="1">
          <mxGeometry x="245" y="-470" width="170" height="230" as="geometry" />
        </mxCell>
        <mxCell id="K7m00YYIix95iYP7Vpyf-43" value="&lt;font style=&quot;font-size: 18px;&quot;&gt;Domínio&lt;/font&gt;" style="text;html=1;align=center;verticalAlign=middle;whiteSpace=wrap;rounded=0;" parent="1" vertex="1">
          <mxGeometry x="540" y="-1135" width="60" height="30" as="geometry" />
        </mxCell>
        <mxCell id="K7m00YYIix95iYP7Vpyf-75" style="edgeStyle=orthogonalEdgeStyle;rounded=0;orthogonalLoop=1;jettySize=auto;html=1;entryX=0;entryY=0.75;entryDx=0;entryDy=0;" parent="1" source="K7m00YYIix95iYP7Vpyf-45" target="K7m00YYIix95iYP7Vpyf-69" edge="1">
          <mxGeometry relative="1" as="geometry">
            <Array as="points">
              <mxPoint x="330" y="-830" />
              <mxPoint x="620" y="-830" />
              <mxPoint x="620" y="-691" />
            </Array>
          </mxGeometry>
        </mxCell>
        <mxCell id="K7m00YYIix95iYP7Vpyf-45" value="" style="rounded=0;whiteSpace=wrap;html=1;" parent="1" vertex="1">
          <mxGeometry x="240" y="-1140" width="180" height="290" as="geometry" />
        </mxCell>
        <mxCell id="K7m00YYIix95iYP7Vpyf-46" value="&lt;font style=&quot;font-size: 18px;&quot;&gt;Serviço&lt;/font&gt;" style="text;html=1;align=center;verticalAlign=middle;whiteSpace=wrap;rounded=0;" parent="1" vertex="1">
          <mxGeometry x="300" y="-1130" width="60" height="30" as="geometry" />
        </mxCell>
        <mxCell id="K7m00YYIix95iYP7Vpyf-51" style="edgeStyle=orthogonalEdgeStyle;rounded=0;orthogonalLoop=1;jettySize=auto;html=1;entryX=0;entryY=0.5;entryDx=0;entryDy=0;" parent="1" source="K7m00YYIix95iYP7Vpyf-48" target="K7m00YYIix95iYP7Vpyf-38" edge="1">
          <mxGeometry relative="1" as="geometry" />
        </mxCell>
        <mxCell id="K7m00YYIix95iYP7Vpyf-64" style="edgeStyle=orthogonalEdgeStyle;rounded=0;orthogonalLoop=1;jettySize=auto;html=1;entryX=0;entryY=0.5;entryDx=0;entryDy=0;exitX=0;exitY=0.5;exitDx=0;exitDy=0;" parent="1" source="K7m00YYIix95iYP7Vpyf-48" target="K7m00YYIix95iYP7Vpyf-60" edge="1">
          <mxGeometry relative="1" as="geometry">
            <Array as="points">
              <mxPoint x="170" y="-1060" />
              <mxPoint x="170" y="-600" />
            </Array>
          </mxGeometry>
        </mxCell>
        <mxCell id="K7m00YYIix95iYP7Vpyf-48" value="Casos de uso Cliente" style="rounded=0;whiteSpace=wrap;html=1;" parent="1" vertex="1">
          <mxGeometry x="280" y="-1090" width="120" height="60" as="geometry" />
        </mxCell>
        <mxCell id="K7m00YYIix95iYP7Vpyf-52" style="edgeStyle=orthogonalEdgeStyle;rounded=0;orthogonalLoop=1;jettySize=auto;html=1;" parent="1" source="K7m00YYIix95iYP7Vpyf-49" target="K7m00YYIix95iYP7Vpyf-39" edge="1">
          <mxGeometry relative="1" as="geometry" />
        </mxCell>
        <mxCell id="K7m00YYIix95iYP7Vpyf-63" style="edgeStyle=orthogonalEdgeStyle;rounded=0;orthogonalLoop=1;jettySize=auto;html=1;exitX=0;exitY=0.5;exitDx=0;exitDy=0;" parent="1" source="K7m00YYIix95iYP7Vpyf-49" target="K7m00YYIix95iYP7Vpyf-59" edge="1">
          <mxGeometry relative="1" as="geometry">
            <Array as="points">
              <mxPoint x="190" y="-980" />
              <mxPoint x="190" y="-670" />
            </Array>
          </mxGeometry>
        </mxCell>
        <mxCell id="K7m00YYIix95iYP7Vpyf-49" value="Casos de uso Produto" style="rounded=0;whiteSpace=wrap;html=1;" parent="1" vertex="1">
          <mxGeometry x="280" y="-1010" width="120" height="60" as="geometry" />
        </mxCell>
        <mxCell id="K7m00YYIix95iYP7Vpyf-53" style="edgeStyle=orthogonalEdgeStyle;rounded=0;orthogonalLoop=1;jettySize=auto;html=1;" parent="1" source="K7m00YYIix95iYP7Vpyf-50" target="K7m00YYIix95iYP7Vpyf-40" edge="1">
          <mxGeometry relative="1" as="geometry" />
        </mxCell>
        <mxCell id="K7m00YYIix95iYP7Vpyf-62" style="edgeStyle=orthogonalEdgeStyle;rounded=0;orthogonalLoop=1;jettySize=auto;html=1;exitX=0.031;exitY=0.6;exitDx=0;exitDy=0;exitPerimeter=0;" parent="1" source="K7m00YYIix95iYP7Vpyf-50" target="K7m00YYIix95iYP7Vpyf-58" edge="1">
          <mxGeometry relative="1" as="geometry">
            <Array as="points">
              <mxPoint x="220" y="-884" />
              <mxPoint x="220" y="-730" />
            </Array>
          </mxGeometry>
        </mxCell>
        <mxCell id="K7m00YYIix95iYP7Vpyf-50" value="Casos de uso Pedido" style="rounded=0;whiteSpace=wrap;html=1;" parent="1" vertex="1">
          <mxGeometry x="280" y="-920" width="120" height="60" as="geometry" />
        </mxCell>
        <mxCell id="K7m00YYIix95iYP7Vpyf-57" value="&lt;font style=&quot;font-size: 18px;&quot;&gt;Repositório&lt;/font&gt;" style="text;html=1;align=center;verticalAlign=middle;whiteSpace=wrap;rounded=0;" parent="1" vertex="1">
          <mxGeometry x="300" y="-810" width="60" height="30" as="geometry" />
        </mxCell>
        <mxCell id="K7m00YYIix95iYP7Vpyf-58" value="Repositório Pedido" style="rounded=0;whiteSpace=wrap;html=1;" parent="1" vertex="1">
          <mxGeometry x="280" y="-780" width="120" height="60" as="geometry" />
        </mxCell>
        <mxCell id="K7m00YYIix95iYP7Vpyf-59" value="Repositório Produto" style="rounded=0;whiteSpace=wrap;html=1;" parent="1" vertex="1">
          <mxGeometry x="280" y="-700" width="120" height="60" as="geometry" />
        </mxCell>
        <mxCell id="K7m00YYIix95iYP7Vpyf-60" value="Repositório Cliente" style="rounded=0;whiteSpace=wrap;html=1;" parent="1" vertex="1">
          <mxGeometry x="280" y="-630" width="120" height="60" as="geometry" />
        </mxCell>
        <mxCell id="K7m00YYIix95iYP7Vpyf-69" value="" style="rounded=0;whiteSpace=wrap;html=1;" parent="1" vertex="1">
          <mxGeometry x="820" y="-1145" width="180" height="605" as="geometry" />
        </mxCell>
        <mxCell id="K7m00YYIix95iYP7Vpyf-73" value="&lt;font style=&quot;font-size: 18px;&quot;&gt;Cross Cutting&lt;/font&gt;" style="text;html=1;align=center;verticalAlign=middle;whiteSpace=wrap;rounded=0;" parent="1" vertex="1">
          <mxGeometry x="880" y="-1000" width="60" height="30" as="geometry" />
        </mxCell>
        <mxCell id="K7m00YYIix95iYP7Vpyf-77" style="edgeStyle=orthogonalEdgeStyle;rounded=0;orthogonalLoop=1;jettySize=auto;html=1;entryX=0.053;entryY=0.997;entryDx=0;entryDy=0;entryPerimeter=0;" parent="1" source="K7m00YYIix95iYP7Vpyf-56" target="K7m00YYIix95iYP7Vpyf-69" edge="1">
          <mxGeometry relative="1" as="geometry">
            <Array as="points">
              <mxPoint x="620" y="-600" />
              <mxPoint x="620" y="-542" />
            </Array>
          </mxGeometry>
        </mxCell>
        <mxCell id="K7m00YYIix95iYP7Vpyf-78" value="IOC" style="text;html=1;align=center;verticalAlign=middle;whiteSpace=wrap;rounded=0;" parent="1" vertex="1">
          <mxGeometry x="880" y="-840" width="60" height="30" as="geometry" />
        </mxCell>
      </root>
    </mxGraphModel>
  </diagram>
</mxfile>
